# xmcd
#
# Track frame offsets:
#	150
#	18450
#	37360
#	58171
#	77476
#	100241
#	120823
#	147085
#	165479
#	180305
#	198533
#	221438
#	243242
#	258203
#	288949
#
# Disc length: 4192 seconds
#
# Revision: 4
# Processed by: cddbd v1.5.2PL0 Copyright (c) Steve Scherf et al.
# Submitted via: audiograbber 1.83.01
#
DISCID=c7105e0f
DTITLE=Various Artist - Cafe del Mar 30 Years Of Music 1980-2010 - CD2
DYEAR=2010
DGENRE=Ambient
TTITLE0=Lunatic Soul - Time to Remember 
TTITLE1=Gary B - Esta Noche
TTITLE2=AGP Band - Bailando con La Luna
TTITLE3=Paco Fernandez - Almendres Islas
TTITLE4=DAB - I Promise
TTITLE5=Javier Esteve - Hungry Heart
TTITLE6=Sol Electrico - Nothing
TTITLE7=Elmara - Slow Train
TTITLE8=Ypeg - Somewhere Else
TTITLE9=Nerio Poggi - Season to Love
TTITLE10=Solaris Navis - When the Sun Goes Down
TTITLE11=Wasaby Ink - All my Love
TTITLE12=Atlan Chill - Volar
TTITLE13=Steve Xavier - One World
TTITLE14=Toni Simonen - Endless Sea
EXTD=
EXTT0=
EXTT1=
EXTT2=
EXTT3=
EXTT4=
EXTT5=
EXTT6=
EXTT7=
EXTT8=
EXTT9=
EXTT10=
EXTT11=
EXTT12=
EXTT13=
EXTT14=
PLAYORDER=
